<svg
  xmlns="http://www.w3.org/2000/svg"
  viewBox="0 0 1200 400"
  role="img"
  aria-labelledby="title description"
>
  <title id="title">Folden</title>
  <desc id="description">A local writing editor. Your Markdown stays yours.</desc>
  <defs>
    <linearGradient id="violet" x1="44" y1="40" x2="212" y2="216" gradientUnits="userSpaceOnUse">
      <stop stop-color="#e0d6ff" />
      <stop offset="1" stop-color="#a88af4" />
    </linearGradient>
  </defs>
  <rect width="1200" height="400" rx="24" fill="#1b1b24" />
  <path
    d="M960 0v164l-124 124v112M1072 0v212L884 400M1200 84l-316 316"
    fill="none"
    stroke="#a88af4"
    stroke-opacity=".13"
    stroke-width="2"
  />
  <g transform="translate(62 72)">
    <path
      fill="url(#violet)"
      fill-rule="evenodd"
      d="M76 40h104q32 0 32 32v72h-68v44l-28 28H76q-32 0-32-32V72q0-32 32-32Zm0 32v112h36v-44l28-28h40V72Z"
    />
    <path fill="#8061c7" d="m112 140 32 4v44Z" />
  </g>
  <g font-family="Inter,Segoe UI,Arial,sans-serif">
    <text x="346" y="177" font-size="76" font-weight="650" letter-spacing="-3" fill="#f4f0ff">
      Folden
    </text>
    <text x="350" y="234" font-size="26" fill="#c2bbd3">A local writing editor.</text>
    <text x="350" y="276" font-size="26" fill="#c2bbd3">Your Markdown stays yours.</text>
    <text x="350" y="328" font-size="15" letter-spacing="2" fill="#a88af4">
      PUBLIC BETA · WINDOWS · LINUX · macOS
    </text>
  </g>
</svg>
